Fly_normalized_Motion_pl06
version=1
nRows=25
nColumns=43
inDegrees=yes
endheader
time		pelvis_tilt		pelvis_list		pelvis_rotation		pelvis_tx		pelvis_ty		pelvis_tz		hip_flexion_r		hip_adduction_r		hip_rotation_r		knee_angle_r		ankle_angle_r		subtalar_angle_r		mtp_angle_r		hip_flexion_l		hip_adduction_l		hip_rotation_l		knee_angle_l		ankle_angle_l		subtalar_angle_l		mtp_angle_l		lumbar_extension		lumbar_bending		lumbar_rotation		neck_flexion		neck_lateral_bending		neck_rotation		arm_flex_r		arm_add_r		arm_rot_r		elbow_flex_r		pro_sup_r		wrist_flex_r		wrist_dev_r		hand_finger_flex_r		arm_flex_l		arm_add_l		arm_rot_l		elbow_flex_l		pro_sup_l		wrist_flex_l		wrist_dev_l		hand_finger_flex_l		
0.755000		0.136048		-0.932725		87.264390		-0.015897		1.815132		1.230353		54.398777		-6.174493		1.563695		-93.672962		-15.792126		-13.780942		10.384038		47.752583		2.325746		0.172535		-87.254943		-31.767392		-9.271019		10.502993		-57.708901		-1.858257		2.486008		12.109140		-0.360667		-2.142672		104.073947		-22.427622		46.957741		52.404720		89.899388		-28.111231		-0.835360		45.208235		99.340674		-13.022005		26.474530		59.276836		115.696467		-18.051704		12.105243		71.921946		
0.759394		0.033761		-0.490175		87.336402		-0.015934		1.810363		1.222595		54.573660		-6.200796		1.413543		-92.613933		-16.141101		-13.452582		10.513882		47.613134		2.468774		-0.007126		-85.604406		-31.389575		-8.645046		10.877723		-58.202486		-1.925399		2.164544		11.980729		-0.293987		-1.991869		102.099521		-23.475111		47.624535		52.541283		90.191706		-27.987763		-0.613835		45.522053		97.638776		-13.712530		26.492369		59.142459		116.106033		-17.688354		12.322941		72.303767		
0.763788		-0.091487		-0.050663		87.394462		-0.015889		1.805388		1.214791		54.705419		-6.221831		1.294053		-91.485328		-16.541741		-13.094667		10.700434		47.420422		2.589018		-0.234661		-83.902052		-30.964120		-8.075269		11.280363		-58.685839		-2.038586		1.825323		11.837670		-0.213780		-1.864220		100.065413		-24.577114		48.295434		52.670294		90.477473		-27.830048		-0.335847		45.919013		95.900685		-14.389917		26.432893		58.976291		116.534576		-17.215839		12.569305		72.846919		
0.768182		-0.404511		0.517067		87.349163		-0.015710		1.800643		1.206970		54.685892		-6.283429		1.432074		-90.267769		-17.059871		-12.608901		11.319046		46.963051		2.783540		-0.651347		-82.040357		-30.318827		-7.293598		12.152362		-59.357317		-2.391396		1.394305		11.961944		-0.070997		-1.755029		97.975836		-25.734563		48.761883		52.864298		91.096802		-27.697189		0.355215		46.839951		94.185023		-14.821963		25.908506		58.673577		117.569706		-16.266132		13.021310		74.049477		
0.772576		-0.417378		0.915849		87.395195		-0.015516		1.795217		1.198982		54.700762		-6.184282		1.214799		-88.976743		-17.494436		-12.320868		11.470622		46.759921		2.742551		-0.910510		-80.311093		-30.184702		-7.267055		12.352102		-59.749418		-2.452347		1.139646		11.625835		-0.021156		-1.695532		95.772891		-26.859917		49.459384		52.903848		91.292161		-27.434485		0.611130		47.226856		92.335579		-15.689485		26.051514		58.543143		117.798588		-15.971610		13.153040		74.363574		
0.776970		-0.676430		1.551553		87.311203		-0.015300		1.790209		1.190837		54.451047		-6.156899		1.332076		-87.595662		-18.143383		-11.916373		11.955323		46.128110		2.824228		-1.425950		-78.371056		-29.848225		-7.165495		12.865661		-60.444263		-2.785497		0.758174		11.592823		0.070515		-1.611825		93.502423		-28.052198		49.907332		53.075532		91.885960		-27.113684		1.290203		48.016496		90.489344		-16.361611		25.807861		58.341503		118.443093		-15.475288		13.494440		74.960396		
0.781364		-0.858266		2.154363		87.244682		-0.015042		1.784888		1.182547		54.140977		-6.076753		1.382439		-86.136026		-18.824011		-11.519733		12.244230		45.486394		2.829614		-1.892651		-76.417823		-29.588991		-7.196482		13.208100		-61.068130		-3.050712		0.416475		11.450771		0.125970		-1.511331		91.107771		-29.235474		50.312988		53.225366		92.413856		-26.748253		1.848956		48.540374		88.551726		-17.175743		25.696821		58.216932		118.834237		-15.206884		13.823396		75.252440		
0.785758		-0.951651		2.596440		87.229484		-0.014727		1.779045		1.174313		53.898640		-5.957841		1.298612		-84.611013		-19.294362		-11.221543		12.439549		44.982713		2.755294		-2.263728		-74.411370		-29.426293		-7.232186		13.449007		-61.492534		-3.227284		0.118515		11.241165		0.177024		-1.452512		88.684148		-30.374740		50.820191		53.219086		92.815484		-26.387113		2.309254		48.937999		86.608573		-18.050336		25.709232		57.994400		119.111845		-14.990164		14.104241		75.461391		
0.790152		-1.085295		3.358800		87.137255		-0.014369		1.773679		1.165629		53.227573		-5.842748		1.310190		-82.976330		-20.147290		-10.835468		12.696840		44.006265		2.678705		-2.751893		-72.349637		-29.244662		-7.476199		13.908563		-62.259790		-3.489525		-0.160680		11.084161		0.186863		-1.307178		85.997748		-31.544615		50.706875		53.439227		93.609243		-25.838647		3.079324		49.539413		84.427410		-18.788969		25.224898		57.946195		119.612846		-14.956851		14.558527		75.656971		
0.794545		-1.065223		3.898688		87.163760		-0.014038		1.767620		1.156972		52.651575		-5.727106		1.062367		-81.265967		-20.698825		-10.568135		12.843301		43.279821		2.506862		-3.075883		-70.310260		-29.215293		-7.718811		14.252957		-62.743447		-3.565994		-0.343089		10.741546		0.201712		-1.236418		83.259849		-32.696295		50.707884		53.484372		94.209030		-25.314105		3.670261		50.076094		82.220898		-19.598461		24.946507		57.799149		120.052698		-14.931090		14.897668		75.862321		
0.798939		-1.046646		4.553059		87.209693		-0.013584		1.761437		1.148046		51.847154		-5.642403		0.751925		-79.523809		-21.079454		-10.412488		13.127813		42.387236		2.299620		-3.477883		-68.274788		-29.309524		-8.039741		14.848919		-63.305275		-3.659178		-0.496764		10.290447		0.300798		-1.253664		80.326396		-33.893757		50.380529		53.616798		95.263373		-24.545690		4.446273		50.929731		79.945368		-20.372346		24.663181		57.682034		120.844244		-14.834570		15.295950		76.282927		
0.803333		-1.018118		5.095289		87.266710		-0.013362		1.754928		1.139100		51.088730		-5.584359		0.453784		-77.671064		-21.666004		-10.122953		13.303325		41.551540		2.159153		-3.775741		-66.195225		-29.249377		-8.371766		15.335672		-63.752306		-3.694667		-0.666972		9.882730		0.250878		-1.191080		77.310635		-35.065683		50.009559		53.706605		95.894211		-23.976377		4.972290		51.613699		77.572312		-21.189311		24.260502		57.575035		121.311322		-14.768565		15.587969		76.681455		
0.807727		-1.005659		5.666703		87.346507		-0.013150		1.748143		1.129961		50.224156		-5.578410		0.119657		-75.794357		-22.145893		-9.879153		13.396496		40.619496		2.025807		-4.117755		-64.090606		-29.145948		-8.713369		15.642010		-64.181523		-3.710086		-0.870837		9.358328		0.211396		-1.132022		74.224375		-36.231406		49.696901		53.792713		96.148798		-23.492871		5.367694		52.195768		75.101800		-22.114492		23.898416		57.532461		121.595584		-14.659276		15.812805		77.069405		
0.812121		-1.092641		6.505344		87.463460		-0.012917		1.741937		1.120663		48.930887		-5.655552		-0.128273		-73.769355		-22.619771		-9.625470		13.689105		39.192328		2.025451		-4.519299		-61.735837		-28.909916		-9.277016		16.283136		-64.955026		-3.781003		-1.149397		9.131604		0.135329		-1.116906		70.799061		-37.285152		48.406097		53.919855		96.898515		-22.609065		6.042319		53.215099		72.675006		-22.910337		23.291673		57.481954		122.273045		-14.347754		16.053651		77.791788		
0.816515		-1.166139		7.203122		87.594247		-0.012856		1.734921		1.111272		47.776920		-5.802353		-0.486939		-71.811557		-22.934590		-9.437696		13.870217		37.891904		2.027638		-4.834841		-59.389413		-28.730201		-9.623946		16.660461		-65.485449		-3.798107		-1.476349		8.588422		0.149441		-1.049775		67.427663		-38.305157		47.527337		53.964424		97.213403		-21.778117		6.482519		53.874312		70.136258		-23.961401		22.946314		57.494691		122.635110		-13.946448		16.094653		78.270864		
0.820909		-1.218783		7.795893		87.762720		-0.012817		1.727430		1.101885		46.666750		-5.905255		-0.818297		-69.771456		-23.456381		-9.152743		13.996746		36.687186		2.081745		-5.068169		-57.086755		-28.321470		-9.988519		17.012771		-65.879388		-3.745844		-1.820345		8.028908		-0.062430		-0.945980		63.983530		-39.227258		46.576032		53.940123		97.377246		-21.051586		6.806139		54.373850		67.498951		-25.079686		22.604594		57.551790		122.920327		-13.542602		16.078169		78.659020		
0.825303		-1.243086		8.624997		87.927519		-0.012771		1.720370		1.092292		45.145270		-6.033844		-1.241584		-67.590366		-23.890888		-8.922457		14.191966		35.121979		2.085426		-5.343749		-54.702751		-27.945075		-10.316680		17.436391		-66.534689		-3.683487		-2.175079		7.589273		-0.252683		-0.765550		60.325185		-39.953623		44.980522		53.824559		97.666961		-20.099047		7.157216		54.838091		64.792710		-26.169629		22.035461		57.629132		123.377696		-12.947498		15.948591		79.009052		
0.829697		-1.187593		9.380921		88.025645		-0.012631		1.712720		1.082585		43.661405		-6.053125		-1.676417		-65.413474		-24.277450		-8.709776		14.397989		33.704916		1.928990		-5.709979		-52.511489		-27.702329		-10.485527		17.856813		-67.038736		-3.623816		-2.399113		6.964104		-0.409833		-0.601965		56.637593		-40.734768		43.545778		53.703145		98.145718		-19.084719		7.428451		55.132890		62.006629		-27.224717		21.524975		57.663882		123.881227		-12.238156		15.799810		79.261929		
0.834091		-1.107939		10.204200		88.094379		-0.012449		1.704789		1.072729		42.035270		-6.040637		-2.127150		-63.213624		-24.596313		-8.549703		14.604438		32.269520		1.695978		-6.186057		-50.503133		-27.570968		-10.517111		18.312069		-67.565167		-3.591031		-2.546491		6.225617		-0.480942		-0.483010		52.849812		-41.604361		42.111498		53.670272		98.889483		-17.895825		7.669458		55.354693		59.193331		-28.206026		21.028292		57.681932		124.470439		-11.419859		15.621774		79.467391		
0.838485		-1.008217		10.670232		88.132169		-0.012257		1.695975		1.062912		40.803745		-5.965581		-2.514934		-61.023427		-25.015872		-8.322586		14.702304		31.207869		1.475715		-6.563741		-48.491815		-27.371290		-10.621256		18.654569		-67.679065		-3.518718		-2.729433		5.522700		-0.779531		-0.292327		49.151099		-42.255945		40.895168		53.343478		99.123760		-17.148137		7.773805		55.412855		56.224246		-29.276587		20.531522		57.660490		124.669332		-10.890941		15.505833		79.592574		
0.842879		-0.953530		11.721347		88.209137		-0.012012		1.688019		1.052702		38.804876		-6.006707		-3.037455		-58.796729		-25.293525		-8.255553		14.752153		29.365640		1.306005		-7.026386		-46.355954		-27.326804		-10.643179		19.104670		-68.413496		-3.491813		-2.965643		4.850280		-0.835670		-0.012646		45.113150		-42.898482		38.976297		53.285500		99.632693		-16.139489		7.894758		55.619721		53.087592		-30.295156		19.681037		57.931889		124.905240		-10.440169		15.305180		79.781072		
0.847273		-0.934924		12.557195		88.371661		-0.011922		1.679292		1.042498		37.048648		-6.056642		-3.415626		-56.603778		-25.764396		-8.037764		14.701600		27.704580		1.250329		-7.368800		-44.140347		-27.298922		-10.795632		19.791438		-68.856471		-3.349791		-3.269443		4.056927		-1.220204		0.159138		40.994466		-43.355023		36.775963		53.144391		100.446422		-14.970188		8.047317		55.697836		49.919699		-31.383768		19.072143		58.051923		125.107841		-10.017860		15.099803		79.950825		
0.851667		-0.942274		13.069236		88.480012		-0.011709		1.669453		1.032309		35.692209		-6.135466		-3.898184		-54.486402		-26.303041		-7.898502		14.546897		26.480614		1.214814		-7.591893		-42.113292		-27.340928		-10.908568		20.202801		-68.892132		-3.294828		-3.703059		3.112353		-1.530477		0.508658		37.064907		-43.592825		35.104813		52.666533		100.201857		-14.476870		8.002228		55.657964		46.408458		-32.563705		18.186057		58.323737		124.805848		-10.009442		14.979327		80.076288		
0.856061		-0.919327		13.882793		88.610518		-0.011556		1.659822		1.021854		33.918246		-6.200222		-4.414444		-52.343749		-26.771402		-7.794061		14.301240		24.942448		1.118083		-7.932085		-40.196940		-27.537582		-10.934350		20.637607		-69.188064		-3.191401		-4.095551		2.129344		-1.834055		0.865475		33.130720		-43.887806		33.452117		52.295032		100.175273		-13.805938		8.067412		55.732183		42.829457		-33.639168		17.235657		58.564666		124.691236		-10.046256		14.848144		80.281788		
0.860455		-0.830080		14.744126		88.683235		-0.011351		1.649894		1.011194		32.059761		-6.185412		-4.973459		-50.211592		-27.232783		-7.694657		13.972040		23.446283		0.895864		-8.380242		-38.524733		-27.800872		-10.821167		21.085713		-69.464281		-3.082437		-4.423722		1.062859		-2.133720		1.230595		29.182258		-44.137476		31.711040		51.910337		100.237441		-13.023104		8.146743		55.819884		39.102545		-34.585711		16.110096		58.715457		124.704918		-10.096750		14.664532		80.563503		
